<svg viewBox="0 0 512 512" xmlns="http://www.w3.org/2000/svg" fill-rule="evenodd" clip-rule="evenodd" stroke-linejoin="round" stroke-miterlimit="2"><path d="M276.18 393.406c-.234-2.849-.368-4.692-.368-4.692s-8.625-58.172-18.892-75.521c-1.62-2.76.179-14.054 4.715-30.79 2.647 4.58 13.83 24.187 16.076 30.5 2.536 7.138 3.072 9.194 3.072 9.194s-6.144-31.583-16.21-50.005c2.212-7.452 4.848-15.674 7.831-24.478 3.81 6.692 12.937 22.891 14.948 28.51.414 1.151.749 2.134 1.062 3.04.1-.548.2-1.084.29-1.62-2.301-9.787-6.826-26.802-13.026-39.381C289.43 166.574 336.34 70.876 384.435 28.189H70.697c-21.025 0-38.23 17.204-38.23 38.23v345.99c0 21.026 17.205 38.23 38.23 38.23h206.634c-1.486-18.042-1.988-37.995-1.15-57.233" fill="#0f80cc" fill-rule="nonzero"/><g transform="matrix(.39412 0 0 -.39412 -130.142 675.572)"><clipPath id="prefix__a"><path d="M994.055 997.609c6.725-11.629 35.115-61.371 40.815-77.398 6.42-18.121 7.77-23.313 7.77-23.313s-15.57 80.114-41.12 126.862c5.6 18.9 12.29 39.79 19.86 62.12 8.85-15.53 28.96-51.2 36.23-68.1.27 3.19.54 6.38.82 9.54-6.44 24.75-16.22 57.15-28.74 82.54 32.14 167.25 135.59 386.25 247.04 504.48H509.602c-37.883 0-68.711-30.82-68.711-68.71V731.789c173.738 66.68 383.23 127.633 563.529 125.02-6.693 25.812-14.315 49.152-22.318 62.679-4.122 6.981.449 35.653 11.953 78.121z"/></clipPath><g clip-path="url(#prefix__a)"><path d="M994.055 997.609c6.725-11.629 35.115-61.371 40.815-77.398 6.42-18.121 7.77-23.313 7.77-23.313s-15.57 80.114-41.12 126.862c5.6 18.9 12.29 39.79 19.86 62.12 8.85-15.53 28.96-51.2 36.23-68.1.27 3.19.54 6.38.82 9.54-6.44 24.75-16.22 57.15-28.74 82.54 32.14 167.25 135.59 386.25 247.04 504.48H509.602c-37.883 0-68.711-30.82-68.711-68.71V731.789c173.738 66.68 383.23 127.633 563.529 125.02-6.693 25.812-14.315 49.152-22.318 62.679-4.122 6.981.449 35.653 11.953 78.121" fill="url(#prefix___Linear2)" fill-rule="nonzero"/></g></g><path d="M457.61 16.86C436.127-2.298 410.108 5.399 384.435 28.19c-3.81 3.385-7.619 7.139-11.395 11.15-43.928 46.597-84.694 132.91-97.362 198.824 4.926 10.01 8.78 22.78 11.328 32.532a315.078 315.078 0 011.698 6.848c1.117 4.726 1.72 7.798 1.72 7.798s-.39-1.497-2.01-6.178c-.313-.905-.648-1.888-1.062-3.038-.167-.48-.413-1.05-.67-1.676-2.871-6.659-10.792-20.713-14.278-26.835-2.983 8.804-5.62 17.026-7.831 24.478 10.066 18.422 16.21 50.005 16.21 50.005s-.536-2.056-3.072-9.195c-2.246-6.312-13.429-25.918-16.076-30.499-4.536 16.736-6.335 28.03-4.715 30.79 3.15 5.329 6.156 14.523 8.792 24.7 5.966 22.914 10.1 50.821 10.1 50.821s.134 1.843.368 4.692c-.837 19.238-.335 39.19 1.151 57.233 1.977 23.874 5.698 44.386 10.435 55.357l3.217-1.754c-6.96-21.618-9.786-49.96-8.546-82.65 1.865-49.96 13.361-110.21 34.61-172.995 35.884-94.792 85.676-170.85 131.246-207.17-41.537 37.504-97.753 158.93-114.578 203.897-18.847 50.351-32.197 97.597-40.24 142.876 13.886-42.442 58.774-60.685 58.774-60.685s22.02-27.159 47.748-65.958c-15.405 3.519-40.72 9.54-49.2 13.104-12.501 5.24-15.875 7.027-15.875 7.027s40.509-24.667 75.264-35.839c47.793-75.276 99.865-182.212 47.424-228.988" fill="#003b57" fill-rule="nonzero"/><defs><linearGradient id="prefix___Linear2" x1="0" y1="0" x2="1" y2="0" gradientUnits="userSpaceOnUse" gradientTransform="rotate(-90 1236.574 377.766) scale(918.907)"><stop offset="0" stop-color="#97d9f6"/><stop offset=".66" stop-color="#0f80cc"/><stop offset="1" stop-color="#0f80cc"/></linearGradient></defs></svg>